<?xml version="1.0" encoding="UTF-8" standalone="no" ?>
<!DOCTYPE svg PUBLIC "-//W3C//DTD SVG 1.1//EN" "http://www.w3.org/Graphics/SVG/1.1/DTD/svg11.dtd">
<svg xmlns="http://www.w3.org/2000/svg" xmlns:xlink="http://www.w3.org/1999/xlink" version="1.1" width="500" height="500" viewBox="0 0 500 500" xml:space="preserve">
<desc>Created with Fabric.js 3.6.3</desc>
<defs>
</defs>
<rect x="0" y="0" width="100%" height="100%" fill="#ffffff"></rect>
<g transform="matrix(0 -0.8461095585946362 -1.3544337561974513 0 182.88572810824746 251.2339025887201)"  >
<path style="stroke: none; stroke-width: 1; stroke-dasharray: none; stroke-linecap: butt; stroke-dashoffset: 0; stroke-linejoin: miter; stroke-miterlimit: 4; fill: rgb(0,0,0); fill-rule: nonzero; opacity: 1;"  transform=" translate(-49.95, -50)" d="M 91.7 49 H 8.3 c -0.6 0 -1 0.4 -1 1 s 0.4 1 1 1 h 83.3 c 0.6 0 1 -0.4 1 -1 S 92.2 49 91.7 49 z" stroke-linecap="round" />
</g>
<g transform="matrix(0.9263214531761899 -2.2688e-16 2.2688e-16 0.9263214531761899 118.23228983112813 250.36452485959848)"  >
<path style="stroke: none; stroke-width: 0; stroke-dasharray: none; stroke-linecap: butt; stroke-dashoffset: 0; stroke-linejoin: miter; stroke-miterlimit: 4; fill: rgb(41,128,185); fill-rule: nonzero; opacity: 1;"  transform=" translate(-49.98491306581344, -50.00550352319947)" d="M 42.77 20.29 a 7.66 7.66 0 1 0 -3.32 -0.16 V 47.62 l 9.78 12.62 v 33 a 1.66 1.66 0 1 0 3.32 0 V 59.11 L 42.77 46.48 V 20.29 Z m -5.69 -7.55 a 4.4 4.4 0 1 1 4.4 4.4 A 4.41 4.41 0 0 1 37.08 12.74 Z m -8.69 25 a 7.68 7.68 0 1 0 -3.81 6.62 L 41.12 64.6 V 93.26 a 1.66 1.66 0 0 0 3.32 0 V 63.41 L 27 42.12 A 7.62 7.62 0 0 0 28.39 37.76 Z m -12.07 0 a 4.4 4.4 0 1 1 4.4 4.4 A 4.41 4.41 0 0 1 16.33 37.76 Z m 70.61 2.51 a 7.67 7.67 0 1 0 -9.32 7.48 V 63.82 L 65.82 75.75 V 93.26 a 1.66 1.66 0 1 0 3.32 0 V 77.11 L 80.93 65.19 V 47.75 A 7.66 7.66 0 0 0 86.94 40.27 Z m -7.58 4.4 H 79.19 A 4.4 4.4 0 1 1 79.36 44.66 Z M 67 32.6 a 7.67 7.67 0 1 0 -9.31 7.49 a 1.63 1.63 0 0 0 0 0.18 v 53 a 1.66 1.66 0 0 0 3.32 0 v -53 a 1.63 1.63 0 0 0 0 -0.18 A 7.66 7.66 0 0 0 67 32.6 Z M 59.37 37 a 4.4 4.4 0 1 1 4.4 -4.4 A 4.41 4.41 0 0 1 59.37 37 Z" stroke-linecap="round" />
</g>
<g transform="matrix(1,0,0,1,345.33893966388484,250.9398902468937)" style=""  ><path fill="#000000" opacity="1" d="M-123.25-23.94L-123.25-27.17Q-123.25-28.53-124.18-29.47Q-125.12-30.40-126.48-30.40L-126.48-30.40L-139.40-30.40L-139.40-20.71L-126.48-20.71Q-125.12-20.71-124.18-21.65Q-123.25-22.59-123.25-23.94L-123.25-23.94ZM-120.02-27.17L-120.02-23.94Q-120.02-22.65-120.52-21.49Q-121.02-20.33-121.89-19.44Q-122.76-18.55-123.94-18.02Q-125.12-17.48-126.48-17.48L-126.48-17.48L-139.40-17.48L-139.40-11.02L-142.63-11.02L-142.63-33.63L-126.48-33.63Q-125.18-33.63-124.02-33.13Q-122.86-32.63-121.99-31.76Q-121.11-30.89-120.58-29.71Q-120.05-28.53-120.02-27.17L-120.02-27.17Z"/><path fill="#000000" opacity="1" d="M-98.38-17.48L-98.38-27.17Q-98.38-28.53-99.31-29.47Q-100.25-30.40-101.61-30.40L-101.61-30.40L-111.30-30.40Q-112.65-30.40-113.59-29.47Q-114.53-28.53-114.53-27.17L-114.53-27.17L-114.53-17.48Q-114.53-16.13-113.59-15.19Q-112.65-14.25-111.30-14.25L-111.30-14.25L-101.61-14.25Q-100.25-14.25-99.31-15.19Q-98.38-16.13-98.38-17.48L-98.38-17.48ZM-95.15-27.17L-95.15-17.48Q-95.15-16.16-95.66-14.98Q-96.18-13.80-97.05-12.93Q-97.92-12.06-99.10-11.54Q-100.28-11.02-101.61-11.02L-101.61-11.02L-111.30-11.02Q-112.65-11.02-113.83-11.52Q-115.01-12.02-115.88-12.90Q-116.75-13.77-117.25-14.95Q-117.76-16.13-117.76-17.48L-117.76-17.48L-117.76-27.17Q-117.76-28.50-117.24-29.68Q-116.72-30.85-115.85-31.73Q-114.98-32.60-113.80-33.12Q-112.62-33.63-111.30-33.63L-111.30-33.63L-101.61-33.63Q-100.31-33.63-99.15-33.12Q-97.99-32.60-97.10-31.73Q-96.21-30.85-95.68-29.68Q-95.15-28.50-95.15-27.17L-95.15-27.17Z"/><path fill="#000000" opacity="1" d="M-72.86-23.94L-72.86-27.17Q-72.86-28.53-73.79-29.47Q-74.73-30.40-76.09-30.40L-76.09-30.40L-89.01-30.40L-89.01-20.71L-76.09-20.71Q-74.73-20.71-73.79-21.65Q-72.86-22.59-72.86-23.94L-72.86-23.94ZM-69.63-11.02L-71.92-11.02L-78.38-17.48L-89.01-17.48L-89.01-11.02L-92.24-11.02L-92.24-33.63L-76.09-33.63Q-74.83-33.63-73.65-33.13Q-72.47-32.63-71.58-31.76Q-70.69-30.89-70.16-29.71Q-69.63-28.53-69.63-27.17L-69.63-27.17L-69.63-23.94Q-69.63-22.91-69.95-21.96Q-70.27-21.00-70.87-20.20Q-71.47-19.39-72.29-18.76Q-73.12-18.13-74.12-17.81L-74.12-17.81L-69.63-13.32L-69.63-11.02Z"/><path fill="#000000" opacity="1" d="M-46.37-30.40L-56.06-30.40L-56.06-11.02L-59.29-11.02L-59.29-30.40L-68.98-30.40L-68.98-33.63L-46.37-33.63L-46.37-30.40Z"/><path fill="#000000" opacity="1" d="M-29.58-30.40L-39.27-30.40Q-40.62-30.40-41.56-29.47Q-42.50-28.53-42.50-27.17L-42.50-27.17L-42.50-20.71L-26.35-20.71L-26.35-27.17Q-26.35-28.53-27.28-29.47Q-28.22-30.40-29.58-30.40L-29.58-30.40ZM-23.12-27.17L-23.12-11.02L-26.35-11.02L-26.35-17.48L-42.50-17.48L-42.50-11.02L-45.73-11.02L-45.73-27.17Q-45.73-28.46-45.23-29.63Q-44.72-30.79-43.85-31.68Q-42.98-32.57-41.80-33.10Q-40.62-33.63-39.27-33.63L-39.27-33.63L-29.58-33.63Q-28.28-33.63-27.12-33.13Q-25.96-32.63-25.09-31.76Q-24.21-30.89-23.68-29.71Q-23.15-28.53-23.12-27.17L-23.12-27.17Z"/><path fill="#000000" opacity="1" d="M-16.66-33.63L-16.66-14.25L2.72-14.25L2.72-11.02L-19.89-11.02L-19.89-33.63L-16.66-33.63Z"/><path fill="#000000" opacity="1" d="M-120.34 24.86L-120.34 24.86Q-120.34 26.15-120.84 27.31Q-121.34 28.47-122.21 29.36Q-123.08 30.25-124.26 30.78Q-125.44 31.32-126.80 31.32L-126.80 31.32L-136.49 31.32Q-137.81 31.32-138.98 30.82Q-140.14 30.31-141.01 29.44Q-141.88 28.57-142.40 27.39Q-142.92 26.21-142.95 24.86L-142.95 24.86L-139.72 24.86Q-139.72 26.21-138.78 27.15Q-137.85 28.09-136.49 28.09L-136.49 28.09L-126.80 28.09Q-125.44 28.09-124.51 27.15Q-123.57 26.21-123.57 24.86L-123.57 24.86Q-123.57 23.50-124.51 22.56Q-125.44 21.63-126.80 21.63L-126.80 21.63L-136.49 21.63Q-137.78 21.63-138.96 21.13Q-140.14 20.62-141.03 19.75Q-141.92 18.88-142.43 17.70Q-142.95 16.52-142.95 15.17L-142.95 15.17Q-142.95 13.87-142.45 12.71Q-141.95 11.55-141.08 10.66Q-140.20 9.77-139.02 9.24Q-137.85 8.71-136.49 8.71L-136.49 8.71L-126.80 8.71Q-125.51 8.71-124.34 9.21Q-123.18 9.71-122.31 10.58Q-121.44 11.45-120.90 12.63Q-120.37 13.81-120.34 15.17L-120.34 15.17L-123.57 15.17Q-123.57 13.81-124.51 12.87Q-125.44 11.94-126.80 11.94L-126.80 11.94L-136.49 11.94Q-137.85 11.94-138.78 12.87Q-139.72 13.81-139.72 15.17L-139.72 15.17Q-139.72 16.52-138.78 17.46Q-137.85 18.40-136.49 18.40L-136.49 18.40L-126.80 18.40Q-125.54 18.40-124.36 18.90Q-123.18 19.40-122.29 20.27Q-121.41 21.14-120.87 22.32Q-120.34 23.50-120.34 24.86Z"/><path fill="#000000" opacity="1" d="M-98.38 24.86L-98.38 15.17Q-98.38 13.81-99.31 12.87Q-100.25 11.94-101.61 11.94L-101.61 11.94L-111.30 11.94Q-112.65 11.94-113.59 12.87Q-114.53 13.81-114.53 15.17L-114.53 15.17L-114.53 24.86Q-114.53 26.21-113.59 27.15Q-112.65 28.09-111.30 28.09L-111.30 28.09L-101.61 28.09Q-100.25 28.09-99.31 27.15Q-98.38 26.21-98.38 24.86L-98.38 24.86ZM-95.15 15.17L-95.15 24.86Q-95.15 26.18-95.66 27.36Q-96.18 28.54-97.05 29.41Q-97.92 30.28-99.10 30.80Q-100.28 31.32-101.61 31.32L-101.61 31.32L-111.30 31.32Q-112.65 31.32-113.83 30.82Q-115.01 30.31-115.88 29.44Q-116.75 28.57-117.25 27.39Q-117.76 26.21-117.76 24.86L-117.76 24.86L-117.76 15.17Q-117.76 13.84-117.24 12.66Q-116.72 11.48-115.85 10.61Q-114.98 9.74-113.80 9.22Q-112.62 8.71-111.30 8.71L-111.30 8.71L-101.61 8.71Q-100.31 8.71-99.15 9.22Q-97.99 9.74-97.10 10.61Q-96.21 11.48-95.68 12.66Q-95.15 13.84-95.15 15.17L-95.15 15.17Z"/><path fill="#000000" opacity="1" d="M-89.01 11.94L-89.01 18.40L-72.86 18.40L-72.86 21.63L-89.01 21.63L-89.01 31.32L-92.24 31.32L-92.24 8.71L-69.63 8.71L-69.63 11.94L-89.01 11.94Z"/><path fill="#000000" opacity="1" d="M-46.37 11.94L-56.06 11.94L-56.06 31.32L-59.29 31.32L-59.29 11.94L-68.98 11.94L-68.98 8.71L-46.37 8.71L-46.37 11.94Z"/><path fill="#000000" opacity="1" d="M-25.38 28.09L-22.15 28.09Q-20.79 28.09-19.85 27.15Q-18.92 26.21-18.92 24.86L-18.92 24.86L-18.92 8.71L-15.69 8.71L-15.69 24.86Q-15.69 26.15-16.19 27.31Q-16.69 28.47-17.56 29.36Q-18.43 30.25-19.61 30.78Q-20.79 31.32-22.15 31.32L-22.15 31.32L-25.38 31.32Q-28.28 31.32-30.22 29.12L-30.22 29.12Q-32.16 31.32-35.07 31.32L-35.07 31.32L-38.30 31.32Q-39.59 31.32-40.77 30.82Q-41.95 30.31-42.84 29.44Q-43.72 28.57-44.24 27.39Q-44.76 26.21-44.76 24.86L-44.76 24.86L-44.76 8.71L-41.53 8.71L-41.53 24.86Q-41.53 26.21-40.59 27.15Q-39.65 28.09-38.30 28.09L-38.30 28.09L-35.07 28.09Q-33.71 28.09-32.77 27.15Q-31.84 26.21-31.84 24.86L-31.84 24.86L-31.84 8.71L-28.61 8.71L-28.61 24.86Q-28.61 26.21-27.67 27.15Q-26.73 28.09-25.38 28.09L-25.38 28.09Z"/><path fill="#000000" opacity="1" d="M3.69 11.94L-6.00 11.94Q-7.35 11.94-8.29 12.87Q-9.23 13.81-9.23 15.17L-9.23 15.17L-9.23 21.63L6.92 21.63L6.92 15.17Q6.92 13.81 5.99 12.87Q5.05 11.94 3.69 11.94L3.69 11.94ZM10.15 15.17L10.15 31.32L6.92 31.32L6.92 24.86L-9.23 24.86L-9.23 31.32L-12.46 31.32L-12.46 15.17Q-12.46 13.87-11.96 12.71Q-11.46 11.55-10.58 10.66Q-9.71 9.77-8.53 9.24Q-7.35 8.71-6.00 8.71L-6.00 8.71L3.69 8.71Q4.98 8.71 6.15 9.21Q7.31 9.71 8.18 10.58Q9.05 11.45 9.59 12.63Q10.12 13.81 10.15 15.17L10.15 15.17Z"/><path fill="#000000" opacity="1" d="M32.76 18.40L32.76 15.17Q32.76 13.81 31.83 12.87Q30.89 11.94 29.53 11.94L29.53 11.94L16.61 11.94L16.61 21.63L29.53 21.63Q30.89 21.63 31.83 20.69Q32.76 19.75 32.76 18.40L32.76 18.40ZM35.99 31.32L33.70 31.32L27.24 24.86L16.61 24.86L16.61 31.32L13.38 31.32L13.38 8.71L29.53 8.71Q30.79 8.71 31.97 9.21Q33.15 9.71 34.04 10.58Q34.93 11.45 35.46 12.63Q35.99 13.81 35.99 15.17L35.99 15.17L35.99 18.40Q35.99 19.43 35.67 20.38Q35.35 21.34 34.75 22.14Q34.15 22.95 33.33 23.58Q32.50 24.21 31.50 24.53L31.50 24.53L35.99 29.02L35.99 31.32Z"/><path fill="#000000" opacity="1" d="M42.13 11.94L42.13 18.40L58.28 18.40L58.28 21.63L42.13 21.63L42.13 28.09L61.51 28.09L61.51 31.32L38.90 31.32L38.90 8.71L61.51 8.71L61.51 11.94L42.13 11.94Z"/></g></svg>